<?xml version="1.0" encoding="UTF-8"?>
<!DOCTYPE svg PUBLIC "-//W3C//DTD SVG 1.1//EN" "http://www.w3.org/Graphics/SVG/1.1/DTD/svg11.dtd">
<!-- Creator: CorelDRAW X8 -->
<svg xmlns="http://www.w3.org/2000/svg" xml:space="preserve" width="63.1292mm" height="45.2343mm" version="1.1" style="shape-rendering:geometricPrecision; text-rendering:geometricPrecision; image-rendering:optimizeQuality; fill-rule:evenodd; clip-rule:evenodd"
viewBox="0 0 2327 1667"
 xmlns:xlink="http://www.w3.org/1999/xlink">
 <defs>
  <style type="text/css">
   <![CDATA[
    .fil0 {fill:#85C1E9}
   ]]>
  </style>
 </defs>
 <g id="Capa_x0020_1">
  <metadata id="CorelCorpID_0Corel-Layer"/>
  <path class="fil0" d="M851 844c0,-31 23,-54 54,-54l185 0c71,0 70,109 -3,109l-179 0c-32,0 -57,-23 -57,-55zm150 -194c0,-29 28,-48 44,-48l194 0c54,0 70,69 28,98 -26,18 -158,11 -203,11 -45,0 -63,-22 -63,-61zm-83 -185c0,-9 7,-30 18,-39 10,-8 23,-15 39,-15l178 0c49,0 79,59 41,94 -10,9 -18,14 -34,14l-191 0c-30,0 -51,-29 -51,-54zm-214 -172c0,32 2,22 3,42 -27,0 -174,-3 -194,2 -33,10 -44,50 -13,71 17,12 140,6 166,6 36,0 76,-1 112,0 17,1 29,6 36,11 34,25 28,68 -1,89 -16,11 -35,9 -61,9l-350 0c-47,8 -54,82 12,83l471 0c93,5 74,89 21,102 -19,5 -71,3 -97,3 -35,0 -57,-4 -92,-4l-465 0c-22,0 -41,19 -36,51 5,28 26,36 58,35 46,0 451,-2 467,2 61,13 65,101 -18,104 -16,0 -19,3 -38,3 -129,0 -279,-3 -405,0 -8,0 -9,-1 -17,1 -33,9 -35,56 -11,72 22,16 112,10 149,10 8,30 28,58 44,83 12,17 49,56 65,66 25,16 54,35 85,46 32,11 76,21 109,21l1418 0c24,0 81,-28 103,-43l5 -5c1,0 2,-1 2,-1 1,0 1,-1 2,-1 131,-102 113,-299 7,-381 -20,-16 -30,-24 -56,-33 -14,-5 -20,-6 -35,-9 -9,-2 -12,-4 -19,-4 -44,-4 -26,7 -5,-61 37,-120 33,-245 -18,-359 -24,-54 -57,-106 -98,-147 -95,-94 -223,-155 -390,-142 -54,4 -79,10 -131,27 -39,13 -93,42 -126,66 -20,15 -62,55 -73,58 -4,-21 -25,-53 -37,-68 -53,-66 -127,-98 -224,-98 -87,0 -174,14 -235,74 -63,62 -90,130 -90,219z"/>
  <path class="fil0" d="M1619 1415c0,-6 1,-6 3,-10 7,3 4,1 8,7 3,4 76,174 96,211 31,58 105,43 120,22 7,-10 12,-38 12,-55l0 -245c0,-15 -9,-26 -20,-29 -16,-3 -47,-5 -55,12 -5,13 -2,226 -2,243l-9 0 -20 -47c-21,-43 -71,-181 -103,-200 -25,-14 -104,-23 -104,46l0 271c0,15 11,22 26,22 67,0 48,-17 48,-89l0 -159z"/>
  <path class="fil0" d="M1469 1380c4,-8 9,-7 9,-16 0,-27 6,-48 -22,-48l-153 0c-45,0 -76,22 -76,67l0 207c0,53 32,73 86,73l150 0c35,0 31,-56 13,-64 -11,-6 -124,-3 -144,-2 -24,0 -29,-6 -29,-29 0,-59 -8,-48 51,-48 65,0 95,9 99,-23 3,-21 1,-25 -10,-41 -25,0 -51,0 -76,0 -31,0 -64,6 -64,-9 0,-71 -6,-67 70,-67 32,0 64,0 96,0z"/>
  <path class="fil0" d="M758 1405c0,70 71,95 122,118l14 5c48,21 59,75 -50,75 -24,0 -86,-20 -86,6 0,37 -3,42 39,51 60,12 151,14 191,-38 20,-24 16,-43 16,-73 0,-79 -140,-95 -163,-131 -17,-25 12,-42 45,-42 23,0 41,2 63,5 21,3 39,7 39,-30 0,-37 -44,-33 -65,-37 -44,-9 -89,-3 -123,18 -13,7 -22,14 -30,28 -4,8 -12,34 -12,45z"/>
  <path class="fil0" d="M1067 1635c0,19 12,28 32,28 20,0 48,4 48,-25l0 -297c0,-11 -9,-25 -19,-25 -37,0 -61,-8 -61,32l0 287z"/>
  <path class="fil0" d="M6 835c0,32 12,60 55,60 47,0 63,-21 63,-60 0,-14 1,0 -2,-7 -1,0 -4,-8 -4,-9 -26,-46 -112,-25 -112,16z"/>
  <path class="fil0" d="M0 625c0,17 -1,30 15,45 19,17 67,17 86,-1 26,-24 22,-65 -8,-80 -1,-1 -4,-2 -6,-3 -8,-3 6,-3 -7,-3 -37,0 -49,-5 -68,15 -6,6 -12,16 -12,27z"/>
  <path class="fil0" d="M182 456c0,85 87,59 98,50 39,-28 16,-89 -22,-89 -20,0 -46,-2 -60,11 -3,3 -16,23 -16,28z"/>
 </g>
</svg>
